<svg id="Layer_1" data-name="Layer 1" xmlns="http://www.w3.org/2000/svg" viewBox="0 0 1920 1080"><path d="M144.24,171.31c5.84,0,9.51-3.62,10-9.14.27-1.43.85-3,2.77-3,1.75,0,2.39,1.38,2.39,3.45,0,7.76-6.64,13.55-15.51,13.55s-16-3.72-16-15.88v-30.7h-11c-2.86,0-4.3-1-4.3-2.55s1.44-2.5,4.3-2.5h11V109.69c0-2.81,1.11-4.35,3.08-4.35s3,1.54,3,4.35v14.82h21.83c2.92,0,4.35.9,4.35,2.5s-1.43,2.55-4.35,2.55H134v29.1C134,168.28,138.4,171.31,144.24,171.31Z"/><path d="M184.28,171.2V98.48c0-2.81,1.06-4.35,3-4.35s3.08,1.54,3.08,4.35V132a21.55,21.55,0,0,1,17.26-8.66c11.15,0,18.22,6.11,18.22,22.57V171.2c0,2.87-1.12,4.41-3.14,4.41s-3-1.54-3-4.41V146.77c0-13.34-4.57-18.28-13.55-18.28-7.54,0-15.77,6.59-15.77,14.45V171.2c0,2.87-1.06,4.41-3.08,4.41S184.28,174.07,184.28,171.2Z"/><path d="M247.05,149.69c0-18.27,12.17-26.4,23.75-26.4,13.54,0,22.94,10.14,22.94,24.33,0,3-1.54,4.25-4.09,4.25H253c.8,13,8.87,19.44,17.95,19.44,7.92,0,12.38-3,15.25-6.11a4.37,4.37,0,0,1,3-1.65,2.35,2.35,0,0,1,2.5,2.28,3.86,3.86,0,0,1-1.43,2.93c-3.78,3.82-10,7.43-19.5,7.43C258.47,176.19,247.05,167.8,247.05,149.69ZM253,147H287.9c-.53-11.68-6.91-18.85-17.16-18.85C262.46,128.18,254,134.23,253,147Z"/><path d="M381.47,171.89c-.32-2.12-5.68-42.92-5.68-44.46,0-2.28,1.11-3.56,3-3.56s2.86,1.33,3.18,4.15l4.94,42.22,10.68-35.48a4.86,4.86,0,0,1,9.45,0L417.75,170l4.94-42c.32-2.82,1.22-4.15,3.29-4.15,1.86,0,2.92,1.23,2.92,3.46,0,1.8-5.2,41.27-5.68,44.56-.42,3-2.28,4.09-5,4.09-3.24,0-4.78-1-5.53-3.88l-10.35-35.43L392,172.1c-.8,3-2.39,3.88-5.47,3.88C383.81,176,382,174.92,381.47,171.89Z"/><path d="M447.27,171.2V98.48c0-2.81,1.07-4.35,3-4.35s3.08,1.54,3.08,4.35V132a21.56,21.56,0,0,1,17.27-8.66c11.15,0,18.21,6.11,18.21,22.57V171.2c0,2.87-1.11,4.41-3.13,4.41s-3-1.54-3-4.41V146.77c0-13.34-4.57-18.28-13.54-18.28-7.54,0-15.78,6.59-15.78,14.45V171.2c0,2.87-1.06,4.41-3.08,4.41S447.27,174.07,447.27,171.2Z"/><path d="M545.74,171.68v-2.92c-2.18,2.86-8.44,7.43-18.59,7.43-12.32,0-20.29-6.48-20.29-17.1,0-9.93,9-16.63,22.58-16.63,6.69,0,13.91,2,16.25,3.4v-6.21c0-9.83-9.14-11.26-16.57-11.26a36.73,36.73,0,0,0-13.81,3.08,6.14,6.14,0,0,1-2.55.69,2.48,2.48,0,0,1-2.76-2.39c0-1.28,1.11-2.18,2.86-3A43.68,43.68,0,0,1,530,123.29c9.83,0,21.51,3.08,21.51,15.3v31.49h5.58c2.28,0,3.56.91,3.56,2.5s-1.28,2.6-4.15,2.6h-6.63C547.18,175.18,545.74,173.86,545.74,171.68ZM530.13,147c-10.79,0-17.43,4.67-17.43,12.06,0,8.07,5.79,12.27,15.3,12.27A23.06,23.06,0,0,0,545.69,163V150.43C543,148.89,535.23,147,530.13,147Z"/><path d="M576.49,172.58c0-1.65,1.27-2.55,4-2.55h16.05V99.17H584.14c-2.87,0-4.41-.9-4.41-2.49s1.54-2.55,4.41-2.55h14c2.81,0,4.35,1.54,4.35,4.35V170h16.1c2.76,0,4,.9,4,2.55s-1.27,2.5-4,2.5h-38C577.76,175.08,576.49,174.17,576.49,172.58Z"/><path d="M641.55,149.69c0-18.27,12.16-26.4,23.74-26.4,13.54,0,22.94,10.14,22.94,24.33,0,3-1.54,4.25-4.09,4.25h-36.7c.8,13,8.87,19.44,17.95,19.44,7.92,0,12.38-3,15.25-6.11a4.37,4.37,0,0,1,3-1.65,2.35,2.35,0,0,1,2.49,2.28,3.86,3.86,0,0,1-1.43,2.93c-3.77,3.82-10,7.43-19.49,7.43C653,176.19,641.55,167.8,641.55,149.69Zm5.89-2.66h34.95c-.53-11.68-6.9-18.85-17.15-18.85C657,128.18,648.5,134.23,647.44,147Z"/><path d="M708.41,166a2.46,2.46,0,0,1,2.66-2.55c1.16,0,2.07.54,3.55,1.76,3.3,2.87,7.39,5.84,16.1,5.84,8.92,0,15-2.81,15-9.67,0-6-7.7-8.07-16-9.93-9.45-2-19.23-5.26-19.23-14.92s11-13.23,21-13.23c9.77,0,19.06,4.46,19.06,9a2.23,2.23,0,0,1-2.39,2.39,4.41,4.41,0,0,1-3.18-1.44c-2-1.91-5.85-4.83-13.6-4.83-5.63,0-14.66,1.33-14.66,8.13,0,6,7,8,15.19,9.93,9.77,2.13,20.08,5.05,20.08,14.71,0,10.15-9.77,15-21.41,15S708.41,170.4,708.41,166Z"/><path d="M800.82,111.44c0,4.84-1.91,10.68-7.7,15.89a5.35,5.35,0,0,1-3.29,1.64,1.38,1.38,0,0,1-1.54-1.48c0-.85.42-1.7,2-3.09a12.31,12.31,0,0,0,4-6.63,2.34,2.34,0,0,1-.85.15,7.3,7.3,0,1,1,0-14.6C797.58,103.32,800.82,106.29,800.82,111.44Z"/><path d="M910.65,124.51h27.14c2.07,0,3.08,1.33,3.08,3.77v48c0,17.47-8.39,25.12-20.39,25.12-10.79,0-20-8-20-18.11,0-2.23,1.33-3.51,2.92-3.51s2.76,1.22,3.35,3.61c1,8.77,6.85,12.86,13.86,12.86,8.55,0,14.13-5.21,14.13-19.23V129.56H910.65c-2.87,0-4.2-1-4.2-2.55S907.78,124.51,910.65,124.51Zm20.71-20.93a6.3,6.3,0,1,1,6.33,6.32A6.22,6.22,0,0,1,931.36,103.58Z"/><path d="M979,128.33v25.34c0,13.33,4.57,17.42,13.49,17.42,7.6,0,15.77-6.58,15.77-14.44V128.33c0-2.81,1.12-4.35,3.14-4.35s3,1.54,3,4.35v43.29c0,2.87-1.07,4.41-3,4.41s-3.14-1.54-3.14-4.41v-4.09A21.48,21.48,0,0,1,991,176.3c-11.21,0-18.16-5.21-18.16-21.73V128.33c0-2.81,1.11-4.35,3.13-4.35S979,125.52,979,128.33Z"/><path d="M1033.44,172V128.12c0-2.87,1.06-4.25,3-4.25s2.92,1.38,2.92,4.25v2.13c2.66-4.09,6.75-7,11.74-7,5.63,0,9.08,2.71,10.62,8.76,2.5-5,6.91-8.76,12.59-8.76,8,0,11.64,5.52,11.64,18.32V172c0,2.81-1,4.09-2.87,4.09s-2.87-1.28-2.87-4.09V145c0-12.11-1.7-16.2-7.6-16.2-5.31,0-9.93,7-9.93,15.19v28.21c0,2.87-1.17,3.88-2.87,3.88s-2.87-1-2.87-3.88V145c0-12.11-1.7-16.2-7.65-16.2-5.25,0-9.93,6.75-9.93,13.92V172c0,2.81-1,4.09-2.92,4.09S1033.44,174.81,1033.44,172Z"/><path d="M1106.78,171.2V98.48c0-2.81,1.06-4.35,3.08-4.35s3,1.54,3,4.35V132c3.66-5.31,10.14-8.55,17.58-8.55,11.58,0,22.68,8.44,22.68,26.29s-11.1,26.5-22.68,26.5c-7.38,0-13.92-3.24-17.58-8.6v3.61c0,2.87-1.06,4.41-3,4.41S1106.78,174.07,1106.78,171.2Zm22.63-.27c9.24,0,17.37-6.79,17.37-21.24,0-14.72-8.13-21.09-17.37-21.09-8.24,0-15.78,5-16.47,13.23,0,.16,0,.26,0,.42v15.09l0,.37C1113.79,165.83,1121.17,170.93,1129.41,170.93Z"/><path d="M1166,149.69c0-18.54,13.27-26.4,25.38-26.4s25.34,7.86,25.34,26.4-13.33,26.5-25.34,26.5S1166,168.28,1166,149.69Zm44.35,0c0-15.41-10.36-21.25-19-21.25s-19,5.84-19,21.25c0,15.61,10.36,21.35,19,21.35S1210.35,165.3,1210.35,149.69Z"/><path d="M1330.43,170.08c2.6,0,3.87,1,3.87,2.5s-1.27,2.5-3.87,2.5h-26.08c-2.66,0-4-1-4-2.5s1.33-2.5,3.77-2.5h9V129.5h-9c-2.49,0-3.82-1-3.82-2.55s1.54-2.44,4.35-2.44h9.46a4.4,4.4,0,0,1,4.73,4.68v4.46c4.19-6.16,11.42-10.36,18.64-10.36,3.82,0,7.44.9,7.44,3.56a2.69,2.69,0,0,1-3,2.92,13.37,13.37,0,0,1-2.76-.37,16.32,16.32,0,0,0-3.67-.43c-7.86,0-16.62,7.17-16.62,17.37v23.74Z"/><path d="M1400.48,171.68v-2.92c-2.18,2.86-8.45,7.43-18.59,7.43-12.33,0-20.3-6.48-20.3-17.1,0-9.93,9-16.63,22.58-16.63,6.69,0,13.92,2,16.25,3.4v-6.21c0-9.83-9.13-11.26-16.57-11.26a36.73,36.73,0,0,0-13.81,3.08,6.11,6.11,0,0,1-2.55.69,2.48,2.48,0,0,1-2.76-2.39c0-1.28,1.11-2.18,2.87-3a43.58,43.58,0,0,1,17.15-3.45c9.83,0,21.52,3.08,21.52,15.3v31.49h5.57c2.29,0,3.56.91,3.56,2.5s-1.27,2.6-4.14,2.6h-6.64C1401.91,175.18,1400.48,173.86,1400.48,171.68ZM1384.86,147c-10.78,0-17.42,4.67-17.42,12.06,0,8.07,5.79,12.27,15.3,12.27a23,23,0,0,0,17.68-8.29V150.43C1397.77,148.89,1390,147,1384.86,147Z"/><path d="M1446.57,172.31,1431.81,129a7,7,0,0,1-.43-2.33,2.46,2.46,0,0,1,2.76-2.66c2.07,0,3,1.12,3.67,3.72L1452,170.77l14.18-43.07c.75-2.55,1.65-3.72,3.83-3.72a2.43,2.43,0,0,1,2.65,2.66,7.41,7.41,0,0,1-.42,2.33l-14.77,43.34a4.77,4.77,0,0,1-5,3.62h-1A4.75,4.75,0,0,1,1446.57,172.31Z"/><path d="M1496.28,149.69c0-18.27,12.16-26.4,23.74-26.4,13.55,0,23,10.14,23,24.33,0,3-1.54,4.25-4.09,4.25h-36.7c.79,13,8.87,19.44,18,19.44,7.91,0,12.37-3,15.24-6.11a4.39,4.39,0,0,1,3-1.65,2.35,2.35,0,0,1,2.5,2.28,3.88,3.88,0,0,1-1.44,2.93c-3.77,3.82-10,7.43-19.49,7.43C1507.7,176.19,1496.28,167.8,1496.28,149.69Zm5.9-2.66h35c-.54-11.68-6.91-18.85-17.16-18.85C1511.68,128.18,1503.24,134.23,1502.18,147Z"/><path d="M1630.7,171.89c-.32-2.12-5.68-42.92-5.68-44.46,0-2.28,1.11-3.56,3-3.56,2.08,0,2.87,1.33,3.19,4.15l4.94,42.22,10.68-35.48a4.86,4.86,0,0,1,9.45,0L1667,170l4.94-42c.32-2.82,1.22-4.15,3.29-4.15,1.86,0,2.92,1.23,2.92,3.46,0,1.8-5.2,41.27-5.68,44.56-.43,3-2.28,4.09-5,4.09-3.24,0-4.79-1-5.53-3.88l-10.36-35.43-10.35,35.43c-.8,3-2.39,3.88-5.47,3.88C1633,176,1631.18,174.92,1630.7,171.89Z"/><path d="M1729.22,171.68v-2.92c-2.18,2.86-8.45,7.43-18.59,7.43-12.32,0-20.29-6.48-20.29-17.1,0-9.93,9-16.63,22.57-16.63,6.7,0,13.92,2,16.26,3.4v-6.21c0-9.83-9.14-11.26-16.58-11.26a36.78,36.78,0,0,0-13.81,3.08,6.07,6.07,0,0,1-2.54.69,2.49,2.49,0,0,1-2.77-2.39c0-1.28,1.12-2.18,2.87-3a43.68,43.68,0,0,1,17.16-3.45c9.82,0,21.51,3.08,21.51,15.3v31.49h5.58c2.28,0,3.56.91,3.56,2.5s-1.28,2.6-4.15,2.6h-6.64C1730.65,175.18,1729.22,173.86,1729.22,171.68ZM1713.6,147c-10.78,0-17.42,4.67-17.42,12.06,0,8.07,5.79,12.27,15.3,12.27a23.07,23.07,0,0,0,17.69-8.29V150.43C1726.51,148.89,1718.7,147,1713.6,147Z"/><path d="M1760.39,166a2.46,2.46,0,0,1,2.66-2.55c1.16,0,2.07.54,3.56,1.76,3.29,2.87,7.38,5.84,16.09,5.84,8.92,0,15-2.81,15-9.67,0-6-7.7-8.07-16-9.93-9.45-2-19.22-5.26-19.22-14.92s11-13.23,21-13.23c9.77,0,19.06,4.46,19.06,9a2.23,2.23,0,0,1-2.39,2.39,4.41,4.41,0,0,1-3.18-1.44c-2-1.91-5.85-4.83-13.6-4.83-5.63,0-14.66,1.33-14.66,8.13,0,6,7,8,15.19,9.93,9.77,2.13,20.08,5.05,20.08,14.71,0,10.15-9.77,15-21.41,15S1760.39,170.4,1760.39,166Z"/><path d="M154.06,248.68v-3.56c0-2.81,1.12-4.35,3.09-4.35s3.08,1.54,3.08,4.35v67.73c0,2.81-1.07,4.35-3.08,4.35s-3.09-1.54-3.09-4.35V284.54c-3.71,5.25-10.19,8.49-17.52,8.49-11.58,0-22.68-8.65-22.68-26.5s11.1-26.29,22.68-26.29C143.92,240.24,150.4,243.42,154.06,248.68Zm-16.46,39.1c8.23,0,15.56-5.1,16.46-13.23V258.67c-.74-8.23-8.23-13.23-16.46-13.23-9.24,0-17.42,6.38-17.42,21.09C120.18,281,128.36,287.78,137.6,287.78Z"/><path d="M190,245.18v25.33c0,13.34,4.57,17.43,13.49,17.43,7.6,0,15.78-6.59,15.78-14.45V245.18c0-2.82,1.11-4.36,3.13-4.36s3,1.54,3,4.36v43.29c0,2.86-1.06,4.41-3,4.41s-3.13-1.55-3.13-4.41v-4.09A21.5,21.5,0,0,1,202,293.14c-11.21,0-18.17-5.2-18.17-21.72V245.18c0-2.82,1.12-4.36,3.13-4.36S190,242.36,190,245.18Z"/><path d="M268.51,286.87V246.4H255.92c-2.81,0-4.25-1-4.25-2.55s1.44-2.5,4.25-2.5h14.13c2.87,0,4.41,1.54,4.41,4.36v41.16h15.88c2.76,0,4.09.91,4.09,2.55s-1.33,2.5-4.09,2.5H252.52c-2.76,0-4-.9-4-2.5s1.27-2.55,4-2.55ZM265,220.42a6.32,6.32,0,1,1,6.32,6.33A6.25,6.25,0,0,1,265,220.42Z"/><path d="M314.45,266.53c0-19,13.17-26.4,23.9-26.4,7.76,0,13.28,3.19,16.68,7.12a4.25,4.25,0,0,1,1.59,3.13A2.61,2.61,0,0,1,354,253c-1.17,0-2.13-.69-3.14-2.07-2.6-3.56-6.8-5.63-12.48-5.63-8.18,0-17.53,6.59-17.53,21.25s9.35,21.25,17.53,21.25c5.68,0,9.88-2.13,12.48-5.69,1-1.27,2-2,3.14-2a2.54,2.54,0,0,1,2.65,2.55A4.11,4.11,0,0,1,355,285.7c-3.4,4-8.92,7.23-16.68,7.23C327.62,292.93,314.45,285.54,314.45,266.53Z"/><path d="M382.59,288V214.85c0-2.82,1.11-4.36,3.08-4.36s3.08,1.54,3.08,4.36v50.51l27.19-22.84a5.18,5.18,0,0,1,3.83-1.7,2.14,2.14,0,0,1,2.34,2.18c0,.9-.22,1.49-1.49,2.6L405,258.83l18,28.63a4.68,4.68,0,0,1,.9,2.71c0,1.64-1.33,2.28-2.76,2.28-2,0-2.71-1.12-4.09-3.19L400.59,262.6l-11.84,10.09V288c0,2.87-1.06,4.41-3.08,4.41S382.59,290.91,382.59,288Z"/><path d="M445,289.42c0-1.64,1.27-2.55,4-2.55h16V216H452.64c-2.87,0-4.41-.91-4.41-2.5s1.54-2.55,4.41-2.55h14c2.81,0,4.35,1.54,4.35,4.36v71.54h16.1c2.76,0,4,.91,4,2.55s-1.27,2.5-4,2.5H449C446.26,291.92,445,291,445,289.42Z"/><path d="M512,270.46V245.12c0-2.86,1.07-4.4,3.08-4.4s3.08,1.54,3.08,4.4v24.44c0,13.33,4.09,18.27,13.07,18.27,7.49,0,16.2-6.59,16.2-14.45V244.91c0-2.71,1.06-4.19,3.08-4.19s3.08,1.48,3.08,4.19v49c0,17.05-9.72,24.27-21,24.27-10.15,0-20.13-5.89-20.13-15.46a2.69,2.69,0,0,1,2.87-3c2,0,2.76,1.54,3.29,3.24,1.54,7.06,7.54,10.09,14.18,10.09,7.65,0,14.66-4.73,14.66-18.22V284.22A22.08,22.08,0,0,1,529.86,293C518.71,293,512,287,512,270.46Z"/><path d="M663,286.87V246.4H650.42c-2.82,0-4.25-1-4.25-2.55s1.43-2.5,4.25-2.5h14.12c2.87,0,4.41,1.54,4.41,4.36v41.16h15.88c2.77,0,4.09.91,4.09,2.55s-1.32,2.5-4.09,2.5H647c-2.77,0-4-.9-4-2.5s1.27-2.55,4-2.55Zm-3.5-66.45a6.32,6.32,0,1,1,6.32,6.33A6.25,6.25,0,0,1,659.5,220.42Z"/><path d="M710.8,288V244.75c0-2.81,1.06-4.35,3.08-4.35s3.08,1.54,3.08,4.35V249a21.3,21.3,0,0,1,17.32-8.82c11.15,0,18.11,6.11,18.11,22.58V288c0,2.87-1.06,4.41-3.08,4.41s-3.08-1.54-3.08-4.41V263.61c0-13.33-4.57-18.27-13.49-18.27-7.55,0-15.78,6.58-15.78,14.44V288c0,2.87-1.11,4.41-3.08,4.41S710.8,290.91,710.8,288Z"/><path d="M801.73,288.15c5.84,0,9.5-3.61,10-9.14.27-1.43.85-3,2.76-3,1.76,0,2.39,1.39,2.39,3.46,0,7.75-6.64,13.54-15.51,13.54s-16-3.72-16-15.88V246.4h-11c-2.87,0-4.3-1-4.3-2.55s1.43-2.5,4.3-2.5h11V226.53c0-2.81,1.11-4.35,3.08-4.35s3,1.54,3,4.35v14.82h21.83c2.92,0,4.35.91,4.35,2.5s-1.43,2.55-4.35,2.55H791.48v29.11C791.48,285.12,795.88,288.15,801.73,288.15Z"/><path d="M838.79,266.53c0-18.27,12.17-26.4,23.75-26.4,13.54,0,22.94,10.15,22.94,24.33,0,3-1.54,4.25-4.09,4.25h-36.7c.79,13,8.87,19.44,17.95,19.44,7.92,0,12.38-3,15.25-6.11a4.35,4.35,0,0,1,3-1.65,2.36,2.36,0,0,1,2.5,2.29A3.89,3.89,0,0,1,882,285.6c-3.78,3.82-10,7.43-19.5,7.43C850.21,293,838.79,284.64,838.79,266.53Zm5.9-2.66h34.95c-.53-11.68-6.91-18.85-17.16-18.85C854.2,245,845.75,251.07,844.69,263.87Z"/><path d="M935.93,286.93c2.61,0,3.88,1,3.88,2.49s-1.27,2.5-3.88,2.5H909.85c-2.65,0-4-1-4-2.5s1.33-2.49,3.77-2.49h9V246.35h-9c-2.5,0-3.82-1-3.82-2.55s1.54-2.45,4.35-2.45h9.46a4.39,4.39,0,0,1,4.72,4.68v4.46c4.2-6.16,11.42-10.36,18.65-10.36,3.82,0,7.43.9,7.43,3.56a2.68,2.68,0,0,1-3,2.92,13.38,13.38,0,0,1-2.77-.37,16.16,16.16,0,0,0-3.66-.43c-7.86,0-16.63,7.17-16.63,17.37v23.75Z"/><path d="M1001.68,286.93c2.6,0,3.88,1,3.88,2.49s-1.28,2.5-3.88,2.5H975.6c-2.65,0-4-1-4-2.5s1.33-2.49,3.77-2.49h9V246.35h-9c-2.5,0-3.83-1-3.83-2.55s1.55-2.45,4.36-2.45h9.46A4.39,4.39,0,0,1,990.1,246v4.46c4.2-6.16,11.42-10.36,18.65-10.36,3.82,0,7.43.9,7.43,3.56a2.69,2.69,0,0,1-3,2.92,13.37,13.37,0,0,1-2.76-.37,16.16,16.16,0,0,0-3.66-.43c-7.86,0-16.63,7.17-16.63,17.37v23.75Z"/><path d="M1044.7,245.18v25.33c0,13.34,4.56,17.43,13.49,17.43,7.59,0,15.77-6.59,15.77-14.45V245.18c0-2.82,1.12-4.36,3.14-4.36s3,1.54,3,4.36v43.29c0,2.86-1.06,4.41-3,4.41s-3.14-1.55-3.14-4.41v-4.09a21.48,21.48,0,0,1-17.26,8.76c-11.21,0-18.16-5.2-18.16-21.72V245.18c0-2.82,1.11-4.36,3.13-4.36S1044.7,242.36,1044.7,245.18Z"/><path d="M1107.79,240.77c2,0,3.08,1.54,3.08,4.35v3.56c3.67-5.26,10.15-8.44,17.53-8.44,11.58,0,22.73,8.44,22.73,26.29S1140,293,1128.4,293c-7.33,0-13.81-3.24-17.53-8.49v28.31c0,2.81-1.12,4.35-3.08,4.35s-3.08-1.54-3.08-4.35V245.12C1104.71,242.31,1105.82,240.77,1107.79,240.77Zm19.55,47c9.24,0,17.42-6.8,17.42-21.25,0-14.71-8.18-21.09-17.42-21.09-8.24,0-15.73,5-16.47,13.23v15.88C1111.77,282.68,1119.1,287.78,1127.34,287.78Z"/><path d="M1196.22,288.15c5.84,0,9.51-3.61,10-9.14.27-1.43.85-3,2.77-3,1.75,0,2.39,1.39,2.39,3.46,0,7.75-6.64,13.54-15.51,13.54s-16-3.72-16-15.88V246.4h-11c-2.86,0-4.3-1-4.3-2.55s1.44-2.5,4.3-2.5h11V226.53c0-2.81,1.11-4.35,3.08-4.35s3,1.54,3,4.35v14.82h21.83c2.92,0,4.35.91,4.35,2.5s-1.43,2.55-4.35,2.55H1186v29.11C1186,285.12,1190.38,288.15,1196.22,288.15Z"/><path d="M1233.29,266.53c0-18.27,12.16-26.4,23.74-26.4,13.54,0,22.94,10.15,22.94,24.33,0,3-1.54,4.25-4.09,4.25h-36.7c.8,13,8.87,19.44,18,19.44,7.92,0,12.38-3,15.25-6.11a4.37,4.37,0,0,1,3-1.65,2.36,2.36,0,0,1,2.49,2.29,3.86,3.86,0,0,1-1.43,2.92c-3.77,3.82-10,7.43-19.5,7.43C1244.71,293,1233.29,284.64,1233.29,266.53Zm5.89-2.66h35c-.53-11.68-6.9-18.85-17.16-18.85C1248.69,245,1240.24,251.07,1239.18,263.87Z"/><path d="M1335.52,288v-3.61c-3.66,5.36-10.19,8.6-17.58,8.6-11.58,0-22.68-8.65-22.68-26.5s11.1-26.29,22.68-26.29c7.44,0,13.92,3.24,17.58,8.55V215.33c0-2.82,1.07-4.36,3.09-4.36s3,1.54,3,4.36V288c0,2.87-1.06,4.41-3,4.41S1335.52,290.91,1335.52,288Zm-16.46-.26c8.18,0,15.56-5.1,16.41-13.23l0-.37V259.09c0-.16,0-.26,0-.42-.69-8.23-8.23-13.23-16.41-13.23-9.3,0-17.42,6.38-17.42,21.09C1301.64,281,1309.76,287.78,1319.06,287.78Z"/><path d="M1435.52,288V215.33c0-2.82,1.07-4.36,3.08-4.36s3,1.54,3,4.36v33.46c3.67-5.31,10.15-8.55,17.58-8.55,11.58,0,22.68,8.44,22.68,26.29s-11.1,26.5-22.68,26.5c-7.38,0-13.91-3.24-17.58-8.6V288c0,2.87-1.06,4.41-3,4.41S1435.52,290.91,1435.52,288Zm22.63-.26c9.24,0,17.37-6.8,17.37-21.25,0-14.71-8.13-21.09-17.37-21.09-8.23,0-15.77,5-16.46,13.23,0,.16-.06.26-.06.42v15.09l.06.37C1442.54,282.68,1449.92,287.78,1458.15,287.78Z"/><path d="M1498.25,270.46V245.12c0-2.86,1.06-4.4,3.08-4.4s3.08,1.54,3.08,4.4v24.44c0,13.33,4.09,18.27,13.06,18.27,7.49,0,16.2-6.59,16.2-14.45V244.91c0-2.71,1.07-4.19,3.08-4.19s3.08,1.48,3.08,4.19v49c0,17.05-9.71,24.27-21,24.27-10.14,0-20.13-5.89-20.13-15.46a2.7,2.7,0,0,1,2.87-3c2,0,2.76,1.54,3.29,3.24,1.54,7.06,7.54,10.09,14.18,10.09,7.65,0,14.66-4.73,14.66-18.22V284.22a22.08,22.08,0,0,1-17.58,8.81C1504.94,293,1498.25,287,1498.25,270.46Z"/><path d="M1628.89,282.84a2.46,2.46,0,0,1,2.66-2.55c1.17,0,2.07.53,3.56,1.75,3.29,2.87,7.38,5.84,16.09,5.84,8.93,0,15-2.81,15-9.67,0-5.94-7.7-8.07-16-9.93-9.46-2-19.23-5.26-19.23-14.92s11-13.23,21-13.23c9.77,0,19.07,4.46,19.07,9a2.23,2.23,0,0,1-2.39,2.39,4.44,4.44,0,0,1-3.19-1.43c-2-1.92-5.84-4.84-13.6-4.84-5.63,0-14.66,1.33-14.66,8.13,0,6,7,8,15.19,9.93,9.78,2.13,20.08,5.05,20.08,14.72,0,10.14-9.77,15-21.4,15S1628.89,287.24,1628.89,282.84Z"/><path d="M1715,286.87V246.4H1702.4c-2.82,0-4.25-1-4.25-2.55s1.43-2.5,4.25-2.5h14.13c2.86,0,4.4,1.54,4.4,4.36v41.16h15.89c2.76,0,4.09.91,4.09,2.55s-1.33,2.5-4.09,2.5H1699c-2.76,0-4-.9-4-2.5s1.28-2.55,4-2.55Zm-3.51-66.45a6.32,6.32,0,1,1,6.32,6.33A6.25,6.25,0,0,1,1711.48,220.42Z"/><path d="M1801.66,243.05a3.83,3.83,0,0,1-.9,2.18L1785,266.48l16.89,22.2a3.11,3.11,0,0,1,.75,2,2.5,2.5,0,0,1-2.76,2.29c-1.92,0-2.93-.9-4.36-2.87L1781.27,271l-14.19,19.34c-1.22,1.59-2.33,2.6-4,2.6a2.38,2.38,0,0,1-2.61-2.23,3.13,3.13,0,0,1,.75-1.91l16.62-21.89-16.3-21.51a3.21,3.21,0,0,1-.8-2.23,2.65,2.65,0,0,1,2.87-2.44c1.86,0,2.81,1,4.19,2.92l13.76,18.64L1795,243.64c1.38-1.92,2.28-2.92,4-2.92A2.46,2.46,0,0,1,1801.66,243.05Z"/><path d="M113,405.68V361.81c0-2.87,1.07-4.25,3-4.25s2.92,1.38,2.92,4.25v2.12c2.65-4.09,6.74-7,11.74-7,5.63,0,9.08,2.71,10.62,8.77,2.5-5.05,6.91-8.77,12.59-8.77,8,0,11.63,5.53,11.63,18.33v30.38c0,2.82-1,4.09-2.87,4.09s-2.87-1.27-2.87-4.09v-27c0-12.11-1.69-16.2-7.59-16.2-5.31,0-9.93,7-9.93,15.19v28.2c0,2.87-1.17,3.88-2.87,3.88s-2.87-1-2.87-3.88V378.7c0-12.11-1.7-16.2-7.65-16.2-5.26,0-9.93,6.74-9.93,13.91v29.27c0,2.82-1,4.09-2.92,4.09S113,408.5,113,405.68Z"/><path d="M202.76,403.71V363.24H190.17c-2.81,0-4.24-1-4.24-2.55s1.43-2.5,4.24-2.5H204.3c2.87,0,4.41,1.54,4.41,4.36v41.16h15.88c2.77,0,4.09.91,4.09,2.55s-1.32,2.5-4.09,2.5H186.78c-2.77,0-4-.9-4-2.5s1.27-2.55,4-2.55Zm-3.5-66.44a6.32,6.32,0,1,1,6.32,6.32A6.25,6.25,0,0,1,199.26,337.27Z"/><path d="M248.17,399.68a2.45,2.45,0,0,1,2.65-2.55c1.17,0,2.08.53,3.56,1.75,3.3,2.87,7.39,5.84,16.1,5.84,8.92,0,15-2.81,15-9.66,0-5.95-7.7-8.08-16-9.94-9.45-2-19.23-5.25-19.23-14.92s11-13.23,21-13.23c9.78,0,19.07,4.46,19.07,9a2.23,2.23,0,0,1-2.39,2.39,4.42,4.42,0,0,1-3.18-1.43c-2-1.91-5.85-4.84-13.6-4.84-5.63,0-14.66,1.33-14.66,8.13,0,6,7,8,15.19,9.93,9.77,2.13,20.08,5.05,20.08,14.72,0,10.14-9.78,15-21.41,15S248.17,404.09,248.17,399.68Z"/><path d="M313.92,399.68a2.45,2.45,0,0,1,2.65-2.55c1.17,0,2.08.53,3.56,1.75,3.3,2.87,7.39,5.84,16.1,5.84,8.92,0,15-2.81,15-9.66,0-5.95-7.7-8.08-16-9.94-9.45-2-19.23-5.25-19.23-14.92S327,357,337,357c9.78,0,19.07,4.46,19.07,9a2.23,2.23,0,0,1-2.39,2.39,4.45,4.45,0,0,1-3.19-1.43c-2-1.91-5.84-4.84-13.59-4.84-5.63,0-14.66,1.33-14.66,8.13,0,6,6.95,8,15.19,9.93,9.77,2.13,20.08,5.05,20.08,14.72,0,10.14-9.78,15-21.41,15S313.92,404.09,313.92,399.68Z"/><path d="M400,403.71V363.24H387.42c-2.81,0-4.25-1-4.25-2.55s1.44-2.5,4.25-2.5h14.13c2.87,0,4.41,1.54,4.41,4.36v41.16h15.88c2.76,0,4.09.91,4.09,2.55s-1.33,2.5-4.09,2.5H384c-2.76,0-4-.9-4-2.5s1.28-2.55,4-2.55Zm-3.51-66.44a6.33,6.33,0,1,1,6.32,6.32A6.26,6.26,0,0,1,396.5,337.27Z"/><path d="M447.81,404.88V361.59c0-2.81,1.06-4.35,3.08-4.35s3.08,1.54,3.08,4.35v4.2A21.26,21.26,0,0,1,471.28,357c11.16,0,18.12,6.11,18.12,22.58v25.33c0,2.87-1.07,4.41-3.09,4.41s-3.08-1.54-3.08-4.41V380.45c0-13.33-4.56-18.27-13.49-18.27-7.54,0-15.77,6.58-15.77,14.45v28.25c0,2.87-1.12,4.41-3.08,4.41S447.81,407.75,447.81,404.88Z"/><path d="M549.51,365.47v-3.72c0-2.71,1.12-4.19,3.14-4.19s3,1.48,3,4.19v49c0,17.05-9.61,24.27-21.77,24.27-11,0-21-5.89-21-15.45a2.7,2.7,0,0,1,2.87-3c1.91,0,2.76,1.54,3.35,3.24,1.48,7.06,7.54,10.09,15,10.09,8.55,0,15.45-4.73,15.45-18.22V401.43c-3.66,5.26-10.14,8.45-17.47,8.45-11.58,0-22.68-8.66-22.68-26.51s11.1-26.29,22.68-26.29C539.37,357.08,545.85,360.27,549.51,365.47ZM533.1,404.62c8.13,0,15.35-4.94,16.41-12.86V375.14c-.85-8-8.28-12.86-16.36-12.86-9.29,0-17.42,6.38-17.42,21.09C515.73,397.82,523.86,404.62,533.1,404.62Z"/><path d="M679.84,408.76H651.21c-2.87,0-4.41-1.43-4.41-3.45,0-1.44.59-2.29,2-4l28.58-38.08H652c-2.87,0-4.41-1-4.41-2.55s1.54-2.5,4.41-2.5h27.57c2.86,0,4.41,1.17,4.41,3.46,0,1.43-.59,2.23-2,3.93l-28.58,38.13h26.4c2.87,0,4.41.85,4.41,2.5S682.71,408.76,679.84,408.76Z"/><path d="M707.29,383.37c0-18.27,12.17-26.4,23.75-26.4C744.58,357,754,367.12,754,381.3c0,3-1.54,4.25-4.09,4.25h-36.7c.8,13,8.87,19.44,17.95,19.44,7.92,0,12.38-3,15.25-6.11a4.37,4.37,0,0,1,3-1.65,2.36,2.36,0,0,1,2.49,2.29,3.86,3.86,0,0,1-1.43,2.92c-3.77,3.82-10,7.44-19.5,7.44C718.71,409.88,707.29,401.48,707.29,383.37Zm5.9-2.65h34.95c-.53-11.69-6.9-18.86-17.16-18.86C722.7,361.86,714.25,367.91,713.19,380.72Z"/><path d="M778,404.88V332.17c0-2.82,1.06-4.36,3.08-4.36s3,1.54,3,4.36v33.46c3.66-5.31,10.14-8.55,17.58-8.55,11.58,0,22.68,8.44,22.68,26.29s-11.1,26.51-22.68,26.51c-7.39,0-13.92-3.24-17.58-8.61v3.61c0,2.87-1.07,4.41-3,4.41S778,407.75,778,404.88Zm22.62-.26c9.25,0,17.37-6.8,17.37-21.25,0-14.71-8.12-21.09-17.37-21.09-8.23,0-15.77,5-16.46,13.23,0,.16-.05.27-.05.43V391l.05.37C785.05,399.52,792.43,404.62,800.66,404.62Z"/><path d="M870.18,403.77c2.61,0,3.88,1,3.88,2.49s-1.27,2.5-3.88,2.5H844.1c-2.65,0-4-1-4-2.5s1.33-2.49,3.77-2.49h9V363.19h-9c-2.49,0-3.82-1-3.82-2.55s1.54-2.45,4.35-2.45h9.46a4.39,4.39,0,0,1,4.72,4.68v4.46C862.8,361.17,870,357,877.25,357c3.82,0,7.43.91,7.43,3.56a2.68,2.68,0,0,1-3,2.92,13.38,13.38,0,0,1-2.77-.37,16.75,16.75,0,0,0-3.66-.42c-7.86,0-16.63,7.17-16.63,17.36v23.75Z"/><path d="M940.23,405.36v-2.92c-2.17,2.87-8.44,7.44-18.59,7.44-12.32,0-20.29-6.48-20.29-17.11,0-9.93,9-16.62,22.58-16.62,6.69,0,13.91,2,16.25,3.4v-6.22c0-9.82-9.13-11.26-16.57-11.26a36.73,36.73,0,0,0-13.81,3.08,6.11,6.11,0,0,1-2.55.69,2.48,2.48,0,0,1-2.76-2.39c0-1.27,1.11-2.17,2.87-3A43.56,43.56,0,0,1,924.51,357c9.83,0,21.51,3.08,21.51,15.3v31.5h5.58c2.29,0,3.56.9,3.56,2.49s-1.27,2.61-4.14,2.61h-6.64C941.67,408.87,940.23,407.54,940.23,405.36Zm-15.61-24.7c-10.78,0-17.42,4.68-17.42,12.06,0,8.07,5.79,12.27,15.29,12.27a23,23,0,0,0,17.69-8.29V384.12C937.53,382.57,929.72,380.66,924.62,380.66Z"/><path d="M1033.7,360.69c0-1.59,1.49-2.5,4.25-2.5H1050V346.51c0-14.77,7.91-20.08,16.73-20.08,9.4,0,15.72,6.69,15.72,16.25,0,2-.74,3.51-2.65,3.51s-2.61-1.65-2.71-3.13c-.37-7.49-4.09-11.85-10.31-11.85-5.79,0-10.62,4.14-10.62,15.88v11.1h20.77c2.76,0,4.25.91,4.25,2.5s-1.49,2.55-4.25,2.55h-20.77v41.91c0,2.81-1.06,4.35-3,4.35S1050,408,1050,405.15V363.24H1038C1035.19,363.24,1033.7,362.34,1033.7,360.69Z"/><path d="M1123.25,403.71V363.24h-12.59c-2.82,0-4.25-1-4.25-2.55s1.43-2.5,4.25-2.5h14.13c2.87,0,4.41,1.54,4.41,4.36v41.16h15.88c2.76,0,4.09.91,4.09,2.55s-1.33,2.5-4.09,2.5h-37.82c-2.76,0-4-.9-4-2.5s1.28-2.55,4-2.55Zm-3.51-66.44a6.32,6.32,0,1,1,6.32,6.32A6.26,6.26,0,0,1,1119.74,337.27Z"/><path d="M1168.65,399.68a2.46,2.46,0,0,1,2.66-2.55c1.17,0,2.07.53,3.56,1.75,3.29,2.87,7.38,5.84,16.09,5.84,8.92,0,15-2.81,15-9.66,0-5.95-7.7-8.08-16-9.94-9.45-2-19.22-5.25-19.22-14.92s11-13.23,21-13.23c9.77,0,19.07,4.46,19.07,9a2.23,2.23,0,0,1-2.39,2.39,4.44,4.44,0,0,1-3.19-1.43c-2-1.91-5.84-4.84-13.6-4.84-5.63,0-14.66,1.33-14.66,8.13,0,6,7,8,15.19,9.93,9.78,2.13,20.08,5.05,20.08,14.72,0,10.14-9.77,15-21.41,15S1168.65,404.09,1168.65,399.68Z"/><path d="M1236.26,404.88V332.17c0-2.82,1.06-4.36,3-4.36s3.08,1.54,3.08,4.36v33.46a21.55,21.55,0,0,1,17.26-8.66c11.16,0,18.22,6.11,18.22,22.58v25.33c0,2.87-1.12,4.41-3.14,4.41s-3-1.54-3-4.41V380.45c0-13.33-4.57-18.27-13.55-18.27-7.54,0-15.77,6.58-15.77,14.45v28.25c0,2.87-1.06,4.41-3.08,4.41S1236.26,407.75,1236.26,404.88Z"/><path d="M167.61,677.67c0,4-2.76,6.21-8,6.21H148.06v44.56c0,6.33-3.08,9.73-8.76,9.73s-8.66-3.4-8.66-9.73V683.88h-9.77c-6.32,0-9.78-2.23-9.78-6.21s3.46-6.17,9.78-6.17h37C164.16,671.5,167.61,673.68,167.61,677.67Z"/><path d="M222.68,671c5.69,0,8.71,3.46,8.71,9.83v47.64c0,6.33-3,9.73-8.71,9.73s-8.71-3.4-8.71-9.73V710.12H196.12v18.32c0,6.33-3.08,9.73-8.71,9.73s-8.71-3.4-8.71-9.73V680.8c0-6.37,3.08-9.83,8.71-9.83s8.71,3.46,8.71,9.83v17H214v-17C214,674.43,217,671,222.68,671Z"/><path d="M286.41,683.88H264.63v14.34H281.9c6.32,0,8.5,2.18,8.5,6.16s-2.18,6.16-8.5,6.16H264.63v14.35h21.78c6.38,0,9.4,2.17,9.4,6.21s-3,6.16-9.4,6.16H257c-6.37,0-9.83-3.4-9.83-9.82V681.28c0-6.38,3.46-9.78,9.83-9.78h29.37c6.38,0,9.4,2.18,9.4,6.17S292.79,683.88,286.41,683.88Z"/><path d="M376.05,728.87c-.58-5.68-4.14-44.41-4.14-49.4,0-5.52,3.45-8.5,8.5-8.5,5.68,0,8.07,3.3,8.18,9.67L389.65,716l5.15-29.37c1-6.11,3.19-8.71,7.49-8.71s6.54,2.6,7.49,8.71l5,29.21,1.06-35.16c.1-6.37,3-9.67,8.71-9.67,5.1,0,8.07,3,8.07,8.5,0,4.14-3.56,43.72-4.14,49.4-.64,6.16-4.57,9.4-10.68,9.4h-.53c-6,0-10-3.08-10.89-9.08l-4.14-26.29-4,26.29c-.85,6-4.84,9.08-10.89,9.08h-.59C380.62,738.27,376.74,735.08,376.05,728.87Z"/><path d="M485.68,671c5.68,0,8.71,3.46,8.71,9.83v47.64c0,6.33-3,9.73-8.71,9.73s-8.71-3.4-8.71-9.73V710.12H459.12v18.32c0,6.33-3.08,9.73-8.71,9.73s-8.71-3.4-8.71-9.73V680.8c0-6.37,3.08-9.83,8.71-9.83s8.71,3.46,8.71,9.83v17H477v-17C477,674.43,480,671,485.68,671Z"/><path d="M504.58,730.73a11.89,11.89,0,0,1,.48-3.24l14.07-47.59c1.59-5.69,4.94-8.5,10.36-8.5h8.71c5.36,0,8.71,2.81,10.3,8.5l14.08,47.59a11.89,11.89,0,0,1,.48,3.24c0,4.78-3.14,7.54-7.86,7.54-5.85,0-8.18-2.92-9.56-8.76l-1.76-6.75H523.81l-1.76,6.75c-1.43,5.84-3.77,8.76-9.61,8.76C507.71,738.27,504.58,735.51,504.58,730.73Zm22.47-20.35h13.59l-6.26-24c-.22-.9-.38-1.81-.54-2.66-.16.85-.37,1.76-.58,2.66Z"/><path d="M614.47,724.89c6.37,0,9.82,2.17,9.82,6.21s-3.45,6.16-9.82,6.16H590.72c-6.37,0-9.82-3.4-9.82-9.82V680.8c0-6.37,3.08-9.83,8.76-9.83s8.66,3.46,8.66,9.83v44.09Z"/><path d="M680.9,683.88H659.13v14.34h17.26c6.32,0,8.5,2.18,8.5,6.16s-2.18,6.16-8.5,6.16H659.13v14.35H680.9c6.38,0,9.41,2.17,9.41,6.21s-3,6.16-9.41,6.16H651.53c-6.37,0-9.82-3.4-9.82-9.82V681.28c0-6.38,3.45-9.78,9.82-9.78H680.9c6.38,0,9.41,2.18,9.41,6.17S687.28,683.88,680.9,683.88Z"/><path d="M707.83,731.79c-3.24-2.44-4.94-5.47-4.94-8.92a6.6,6.6,0,0,1,7-6.8c4.09,0,6.75,2,9.19,4.35,2.92,3,6.27,5.58,12.38,5.58,6.27,0,10.52-2.6,10.52-6.9s-4.47-6-13.76-8.08c-16.89-3.82-24.27-11.26-24.27-21.72,0-11.21,12-18.43,28.15-18.43,7.86,0,15.51,2,20.45,5.84,2.92,2.12,4.88,4.83,4.88,8.29,0,4.14-2.81,6.69-6.9,6.69s-6.91-2.66-8.77-4.41c-2-2.28-4.94-4-10-4-5.78,0-10.09,2.45-10.09,5.79,0,3.83,4.78,6.16,14.08,8.45,14,3.4,24,8.6,24,20.5,0,12.43-11.36,20.4-28.57,20.4C720.57,738.38,712.77,735.83,707.83,731.79Z"/><path d="M807.2,672.73c0,5.79-2,14.5-10.52,23-2.87,2.92-5.15,3.77-6.69,3.77a2.62,2.62,0,0,1-2.82-2.82c0-1.59.64-3,3.51-5.36a18.74,18.74,0,0,0,6-8.29,9.19,9.19,0,0,1-1.22.11,11.18,11.18,0,0,1-11.48-11.37,11.33,11.33,0,0,1,11.48-11.47C801.73,660.35,807.2,664.33,807.2,672.73Z"/><path d="M899,716.55c0-4.89,3.3-7.65,8-7.65,5.79,0,8.07,3.13,9.56,9,.91,5.73,3.88,8.07,8.34,8.07,6.22,0,9.19-4.25,9.19-17.1V681.28c0-6.38,3-9.78,8.66-9.78s8.76,3.4,8.76,9.78v29.16c0,21.51-11.15,27.94-26.56,27.94C910.54,738.38,899,730.94,899,716.55Z"/><path d="M966.31,710.86V681.28c0-6.38,3.08-9.78,8.71-9.78s8.71,3.4,8.71,9.78v28.63c0,10.67,3.61,16.09,10.41,16.09s10.3-5.42,10.3-16.09V681.28c0-6.38,3.08-9.78,8.71-9.78s8.72,3.4,8.72,9.78v29.58c0,20.56-12.38,27.52-27.73,27.52S966.31,731.42,966.31,710.86Z"/><path d="M1029.45,729.29c0-5,3.61-43.71,4.15-49.39.63-6.22,4.56-9.4,10.73-9.4h.53c6.05,0,10.09,3.08,10.94,9.08l4,26.24,4.14-26.24c.85-6,4.84-9.08,10.89-9.08h.53c6.11,0,10,3.18,10.68,9.4.59,5.68,4.14,45.25,4.14,49.39,0,5.48-3,8.5-8.07,8.5-5.68,0-8.6-3.29-8.76-9.66l-1-35.17-5,29.22c-1,6.05-3.18,8.71-7.49,8.71s-6.53-2.66-7.48-8.71l-5.16-29.43-1.06,35.38c-.11,6.37-2.5,9.66-8.18,9.66C1032.91,737.79,1029.45,734.77,1029.45,729.29Z"/><path d="M1153.68,718.62c0,12.48-9.67,18.64-23.9,18.64h-20.24c-6.32,0-9.72-3.4-9.72-9.82V681.28c0-6.38,3.4-9.78,9.72-9.78h17.21c12.48,0,24.44,3.35,24.44,16.1,0,13-10.89,14.87-13.07,14.87C1140.4,702.47,1153.68,704.49,1153.68,718.62Zm-36.44-21h7.07c5,0,9.83-1.16,9.83-6.85,0-6-4.94-6.85-10.26-6.85h-6.64Zm18.7,19.29c0-6.22-5.1-7.81-11-7.81h-7.65v15.83h7.18C1131.16,724.89,1135.94,723,1135.94,716.87Z"/><path d="M1161.27,704.6c0-25,15.51-33.73,30.11-33.73s30,8.71,30,33.73-15.51,33.78-30,33.78S1161.27,729.67,1161.27,704.6Zm42.44,0c0-14-4.89-21.36-12.33-21.36-7.59,0-12.42,7.39-12.42,21.36s4.83,21.4,12.42,21.4C1198.82,726,1203.71,718.67,1203.71,704.6Z"/><path d="M1329.79,729.51l-7.7-17.58h-7.92v16.51c0,6.33-3.08,9.73-8.76,9.73s-8.66-3.4-8.66-9.73V681.28c0-6.38,3.4-9.78,9.72-9.78h19.6c8.92,0,23.32,2.08,23.32,19.18,0,9.77-5.1,15.3-10.94,18.27l8.34,17.63a11.24,11.24,0,0,1,1.16,4.89c0,4-2.76,6.7-7.91,6.7C1333.77,738.17,1332.12,735,1329.79,729.51Zm-15.62-30h8.61c6.16,0,9.19-2.6,9.19-8s-2.93-7.7-9.09-7.7h-8.71Z"/><path d="M1359.31,730.73a11.89,11.89,0,0,1,.48-3.24l14.08-47.59c1.59-5.69,4.93-8.5,10.35-8.5h8.71c5.37,0,8.71,2.81,10.31,8.5l14.07,47.59a11.89,11.89,0,0,1,.48,3.24c0,4.78-3.13,7.54-7.86,7.54-5.84,0-8.18-2.92-9.56-8.76l-1.75-6.75h-20.08l-1.75,6.75c-1.44,5.84-3.78,8.76-9.62,8.76C1362.45,738.27,1359.31,735.51,1359.31,730.73Zm22.47-20.35h13.6l-6.27-24c-.21-.9-.37-1.81-.53-2.66-.16.85-.37,1.76-.59,2.66Z"/><path d="M1453.05,737.37c-6.74,0-10.62-2.92-12.43-8.66l-14.82-47a11,11,0,0,1-.42-3c0-5,3.61-7.76,8.44-7.76,5.85,0,7.71,3,9.14,8.82L1454.27,723l11.42-43.24c1.39-5.84,3.3-8.82,9.09-8.82,4.83,0,8.39,2.87,8.39,7.81a10.16,10.16,0,0,1-.37,3l-14.88,47c-1.8,5.74-5.68,8.66-12.42,8.66Z"/><path d="M1535.64,683.88h-21.78v14.34h17.26c6.33,0,8.5,2.18,8.5,6.16s-2.17,6.16-8.5,6.16h-17.26v14.35h21.78c6.37,0,9.4,2.17,9.4,6.21s-3,6.16-9.4,6.16h-29.37c-6.38,0-9.83-3.4-9.83-9.82V681.28c0-6.38,3.45-9.78,9.83-9.78h29.37c6.37,0,9.4,2.18,9.4,6.17S1542,683.88,1535.64,683.88Z"/><path d="M1625.28,728.87c-.58-5.68-4.14-44.41-4.14-49.4,0-5.52,3.45-8.5,8.5-8.5,5.68,0,8.07,3.3,8.18,9.67l1.06,35.32,5.15-29.37c1-6.11,3.19-8.71,7.49-8.71s6.53,2.6,7.49,8.71l5,29.21,1.07-35.16c.1-6.37,3-9.67,8.71-9.67,5.1,0,8.07,3,8.07,8.5,0,4.14-3.56,43.72-4.14,49.4-.64,6.16-4.57,9.4-10.68,9.4h-.53c-6.06,0-10-3.08-10.89-9.08l-4.14-26.29-4,26.29c-.85,6-4.83,9.08-10.88,9.08H1636C1629.85,738.27,1626,735.08,1625.28,728.87Z"/><path d="M1688.06,730.73a11.86,11.86,0,0,1,.47-3.24l14.08-47.59c1.59-5.69,4.94-8.5,10.36-8.5h8.71c5.36,0,8.71,2.81,10.3,8.5l14.08,47.59a11.89,11.89,0,0,1,.48,3.24c0,4.78-3.14,7.54-7.87,7.54-5.84,0-8.17-2.92-9.56-8.76l-1.75-6.75h-20.08l-1.75,6.75c-1.43,5.84-3.77,8.76-9.61,8.76C1691.19,738.27,1688.06,735.51,1688.06,730.73Zm22.46-20.35h13.6l-6.27-24c-.21-.9-.37-1.81-.53-2.66-.16.85-.37,1.76-.58,2.66Z"/><path d="M1759.81,731.79c-3.24-2.44-4.94-5.47-4.94-8.92a6.6,6.6,0,0,1,7-6.8c4.09,0,6.74,2,9.18,4.35,2.93,3,6.27,5.58,12.38,5.58,6.27,0,10.52-2.6,10.52-6.9s-4.46-6-13.76-8.08c-16.89-3.82-24.27-11.26-24.27-21.72,0-11.21,12-18.43,28.15-18.43,7.86,0,15.51,2,20.45,5.84,2.92,2.12,4.88,4.83,4.88,8.29,0,4.14-2.81,6.69-6.9,6.69s-6.91-2.66-8.77-4.41c-2-2.28-4.94-4-10-4-5.79,0-10.1,2.45-10.1,5.79,0,3.83,4.78,6.16,14.08,8.45,14,3.4,23.95,8.6,23.95,20.5,0,12.43-11.36,20.4-28.57,20.4C1772.55,738.38,1764.75,735.83,1759.81,731.79Z"/><path d="M138,855.22c-14.18-.53-28.73-9.51-28.73-33.78,0-25,15.51-33.73,30.11-33.73s30,8.71,30,33.73c0,18.16-8.13,27.72-18.12,31.6a15.18,15.18,0,0,0,8,4.78,7.06,7.06,0,0,1,5.42,6.53c0,3.67-2.92,5.85-6.85,5.85C150.08,870.2,140,862.5,138,855.22Zm13.71-33.78c0-14-4.89-21.36-12.33-21.36-7.59,0-12.42,7.39-12.42,21.36s4.83,21.4,12.42,21.4C146.84,842.84,151.73,835.51,151.73,821.44Z"/><path d="M177.32,827.71V798.12c0-6.37,3.08-9.77,8.71-9.77s8.71,3.4,8.71,9.77v28.63c0,10.67,3.61,16.09,10.41,16.09s10.31-5.42,10.31-16.09V798.12c0-6.37,3.08-9.77,8.71-9.77s8.71,3.4,8.71,9.77v29.59c0,20.55-12.38,27.51-27.73,27.51S177.32,848.26,177.32,827.71Z"/><path d="M245.62,847.94c0-4,3-6.21,8.87-6.21h8v-41h-8c-5.9,0-8.87-2.23-8.87-6.21s3-6.16,8.87-6.16h32.4c5.95,0,8.87,2.17,8.87,6.16s-2.92,6.21-8.87,6.21H279v41h7.86c5.95,0,8.87,2.18,8.87,6.21s-2.92,6.16-8.87,6.16h-32.4C248.59,854.1,245.62,851.93,245.62,847.94Z"/><path d="M309,821.49c0-26.35,17.42-33.78,31.81-33.78,12.59,0,24.12,7.49,24.12,17a7.25,7.25,0,0,1-7.44,7.38c-4.94,0-6.27-2.55-7.49-5.26-1.32-3.19-3.34-6.75-9.19-6.75-7.27,0-14.18,5.74-14.18,21.41s6.91,21.35,14.18,21.35c5.85,0,7.87-3.56,9.19-6.74,1.22-2.71,2.55-5.31,7.49-5.31a7.29,7.29,0,0,1,7.44,7.43c0,9.51-11.69,17-24.12,17C326.4,855.22,309,847.78,309,821.49Z"/><path d="M376.59,845.39v-47.8c0-6.38,3.08-9.78,8.71-9.78s8.71,3.4,8.71,9.78v17.53l16.3-20.51c3.24-4.25,6.17-6.8,11.16-6.8,4.51,0,7,2.24,7,5.9a9,9,0,0,1-2.39,6.16L413.18,815a43.14,43.14,0,0,1-5.63,6c.85.64,2.76,2.71,5.95,6.75l12.59,14.87a8.86,8.86,0,0,1,2.23,6.16c0,3.77-3,6.32-7.75,6.32-4.89,0-7.23-2-10.31-6.32L394,827.49v17.9c0,6.38-3,9.72-8.71,9.72S376.59,851.77,376.59,845.39Z"/><path d="M483,841.73c6.37,0,9.82,2.18,9.82,6.21s-3.45,6.16-9.82,6.16H459.23c-6.38,0-9.83-3.4-9.83-9.82V797.64c0-6.37,3.08-9.83,8.76-9.83s8.66,3.46,8.66,9.83v44.09Z"/><path d="M525.13,845.39V827.86a34.41,34.41,0,0,1-2.92-4.19l-14-23.74a11.55,11.55,0,0,1-1.59-5.69c0-3.72,3.4-6.53,8.71-6.53,4.19,0,6.16,2.18,8.71,7.43L533.79,815l9.93-20c2.55-5.1,4.89-7.28,9-7.28,5.26,0,8.34,2.76,8.34,6.43a11.54,11.54,0,0,1-1.7,5.79l-14,23.74a39.13,39.13,0,0,1-2.82,4.09v17.63c0,6.32-3,9.72-8.71,9.72S525.13,851.71,525.13,845.39Z"/><path d="M640.11,847.94c0-4,3-6.21,8.87-6.21h8v-41h-8c-5.89,0-8.87-2.23-8.87-6.21s3-6.16,8.87-6.16h32.4c6,0,8.87,2.17,8.87,6.16s-2.92,6.21-8.87,6.21h-7.86v41h7.86c6,0,8.87,2.18,8.87,6.21s-2.92,6.16-8.87,6.16H649C643.09,854.1,640.11,851.93,640.11,847.94Z"/><path d="M704.75,844.49V798c0-6.32,3.5-9.77,9.82-9.77h2.23c5.85,0,9.94,2.92,11.64,8.55l12.64,36.65V798c0-6.32,2.6-9.72,8.28-9.72,5.21,0,8.24,3.4,8.24,9.72v46.53c0,6.37-3.51,9.77-9.83,9.77h-2.29c-5.89,0-9.34-2.87-11.26-8.55l-13.59-36.6v35.38c0,6.43-2.23,9.77-7.92,9.77S704.75,850.92,704.75,844.49Z"/><path d="M825.1,794.51c0,4-2.76,6.21-8,6.21H805.55v44.57c0,6.32-3.08,9.72-8.76,9.72s-8.66-3.4-8.66-9.72V800.72h-9.77c-6.33,0-9.78-2.23-9.78-6.21s3.45-6.16,9.78-6.16h37C821.64,788.35,825.1,790.52,825.1,794.51Z"/><path d="M878.15,800.72H856.37v14.34h17.27c6.32,0,8.49,2.18,8.49,6.16s-2.17,6.17-8.49,6.17H856.37v14.34h21.78c6.37,0,9.4,2.18,9.4,6.21s-3,6.16-9.4,6.16H848.78c-6.38,0-9.83-3.4-9.83-9.82V798.12c0-6.37,3.45-9.77,9.83-9.77h29.37c6.37,0,9.4,2.17,9.4,6.16S884.52,800.72,878.15,800.72Z"/><path d="M935.29,846.35l-7.7-17.58h-7.91v16.52c0,6.32-3.08,9.72-8.77,9.72s-8.65-3.4-8.65-9.72V798.12c0-6.37,3.4-9.77,9.72-9.77h19.6c8.92,0,23.31,2.07,23.31,19.17,0,9.77-5.09,15.3-10.94,18.27l8.34,17.64a11.09,11.09,0,0,1,1.17,4.88c0,4-2.76,6.7-7.91,6.7C939.28,855,937.63,851.82,935.29,846.35Zm-15.61-30h8.6c6.16,0,9.19-2.6,9.19-8s-2.92-7.7-9.08-7.7h-8.71Z"/><path d="M1001,846.35l-7.7-17.58h-7.91v16.52c0,6.32-3.08,9.72-8.77,9.72s-8.65-3.4-8.65-9.72V798.12c0-6.37,3.4-9.77,9.72-9.77h19.6c8.92,0,23.31,2.07,23.31,19.17,0,9.77-5.1,15.3-10.94,18.27l8.34,17.64a11.09,11.09,0,0,1,1.17,4.88c0,4-2.76,6.7-7.92,6.7C1005,855,1003.38,851.82,1001,846.35Zm-15.61-30H994c6.16,0,9.19-2.6,9.19-8s-2.92-7.7-9.08-7.7h-8.71Z"/><path d="M1032.05,827.71V798.12c0-6.37,3.09-9.77,8.72-9.77s8.71,3.4,8.71,9.77v28.63c0,10.67,3.61,16.09,10.41,16.09s10.3-5.42,10.3-16.09V798.12c0-6.37,3.08-9.77,8.71-9.77s8.71,3.4,8.71,9.77v29.59c0,20.55-12.37,27.51-27.72,27.51S1032.05,848.26,1032.05,827.71Z"/><path d="M1119.48,831.26v13c0,6.42-3,9.82-8.66,9.82s-8.71-3.4-8.71-9.82V798.12c0-6.37,3.4-9.77,9.77-9.77h16.47c8,0,24.48,1.75,24.48,21.24s-16.52,21.67-24.48,21.67Zm0-12.37h6.1c4.89,0,9.83-1.28,9.83-9.3s-4.94-8.87-9.83-8.87h-6.1Z"/><path d="M1219.59,794.51c0,4-2.76,6.21-8,6.21H1200v44.57c0,6.32-3.08,9.72-8.76,9.72s-8.66-3.4-8.66-9.72V800.72h-9.77c-6.32,0-9.78-2.23-9.78-6.21s3.46-6.16,9.78-6.16h37C1216.14,788.35,1219.59,790.52,1219.59,794.51Z"/><path d="M1272.64,800.72h-21.77v14.34h17.26c6.32,0,8.5,2.18,8.5,6.16s-2.18,6.17-8.5,6.17h-17.26v14.34h21.77c6.38,0,9.4,2.18,9.4,6.21s-3,6.16-9.4,6.16h-29.37c-6.37,0-9.83-3.4-9.83-9.82V798.12c0-6.37,3.46-9.77,9.83-9.77h29.37c6.38,0,9.4,2.17,9.4,6.16S1279,800.72,1272.64,800.72Z"/><path d="M1351.51,821.22c0,30.12-22.52,32.88-33.14,32.88h-12.86c-6.32,0-9.77-3.4-9.77-9.82V798.12c0-6.37,3.45-9.77,9.77-9.77h12.86C1329,788.35,1351.51,791.11,1351.51,821.22Zm-17.58,0c0-14.71-6.16-20.5-15.61-20.5h-5.16v41h5.16C1327.77,841.73,1333.93,835.88,1333.93,821.22Z"/><path d="M1482.42,835.46c0,12.48-9.66,18.64-23.9,18.64h-20.23c-6.33,0-9.72-3.4-9.72-9.82V798.12c0-6.37,3.39-9.77,9.72-9.77h17.21c12.48,0,24.43,3.34,24.43,16.09,0,13-10.89,14.87-13.07,14.87C1469.15,819.31,1482.42,821.33,1482.42,835.46Zm-36.43-21h7.06c5,0,9.83-1.17,9.83-6.86,0-6-4.94-6.85-10.25-6.85H1446Zm18.69,19.28c0-6.22-5.1-7.81-11-7.81H1446v15.83h7.17C1459.9,841.73,1464.68,839.82,1464.68,833.71Z"/><path d="M1511.37,845.39V827.86a34.43,34.43,0,0,1-2.93-4.19l-14-23.74a11.55,11.55,0,0,1-1.59-5.69c0-3.72,3.4-6.53,8.71-6.53,4.19,0,6.16,2.18,8.71,7.43L1520,815l9.94-20c2.54-5.1,4.88-7.28,9-7.28,5.26,0,8.34,2.76,8.34,6.43a11.54,11.54,0,0,1-1.7,5.79l-14,23.74a39.13,39.13,0,0,1-2.82,4.09v17.63c0,6.32-3,9.72-8.71,9.72S1511.37,851.71,1511.37,845.39Z"/><path d="M1628.31,848.63c-3.24-2.44-4.94-5.47-4.94-8.92a6.6,6.6,0,0,1,7-6.8c4.09,0,6.74,2,9.19,4.36,2.92,3,6.26,5.57,12.37,5.57,6.27,0,10.52-2.6,10.52-6.9s-4.46-6-13.76-8.08c-16.89-3.82-24.27-11.26-24.27-21.72,0-11.21,12-18.43,28.15-18.43,7.86,0,15.51,2,20.45,5.84,2.92,2.13,4.89,4.83,4.89,8.29,0,4.14-2.82,6.69-6.91,6.69s-6.9-2.66-8.76-4.41c-2-2.28-4.94-4-10-4-5.79,0-10.09,2.45-10.09,5.79,0,3.83,4.78,6.17,14.07,8.45,14,3.4,24,8.6,24,20.5,0,12.43-11.37,20.4-28.58,20.4C1641.06,855.22,1633.25,852.67,1628.31,848.63Z"/><path d="M1692.09,847.94c0-4,3-6.21,8.87-6.21h8v-41h-8c-5.89,0-8.87-2.23-8.87-6.21s3-6.16,8.87-6.16h32.4c6,0,8.87,2.17,8.87,6.16s-2.92,6.21-8.87,6.21h-7.86v41h7.86c6,0,8.87,2.18,8.87,6.21s-2.92,6.16-8.87,6.16H1701C1695.07,854.1,1692.09,851.93,1692.09,847.94Z"/><path d="M1758.16,848.58c0-1.75.48-3.29,2.12-5.58l14.29-20.82-15.45-22.95a7.85,7.85,0,0,1-1.49-5.15c0-3.61,2.55-6.42,7.28-6.42s6.95,2,10.41,7.7l8,13.17,7.71-13.17c3.39-5.74,5.41-7.65,10.83-7.65,3.4,0,7.22,1.59,7.22,5.74a10.24,10.24,0,0,1-1.85,5.78l-15.25,22.21L1806.07,843a10,10,0,0,1,2.13,5.9c0,3.61-2.82,6.21-7.65,6.21-5.26,0-7.07-2.6-9.88-7.17l-7.6-12.48-7.75,12.48c-2.82,4.57-4.62,7.17-9.78,7.17C1760.66,855.11,1758.16,852.24,1758.16,848.58Z"/><path d="M109,963c0-5.05,3.61-43.72,4.14-49.4.64-6.21,4.57-9.4,10.73-9.4h.53c6.06,0,10.09,3.08,10.94,9.08l4,26.24,4.14-26.24c.85-6,4.83-9.08,10.89-9.08h.53c6.11,0,10,3.19,10.68,9.4.58,5.68,4.14,45.25,4.14,49.4,0,5.47-3,8.5-8.07,8.5-5.69,0-8.61-3.3-8.77-9.67l-1-35.16-5,29.21c-1,6.06-3.19,8.71-7.49,8.71s-6.53-2.65-7.49-8.71l-5.15-29.43-1.06,35.38c-.11,6.37-2.5,9.67-8.18,9.67C112.42,971.48,109,968.45,109,963Z"/><path d="M179.87,964.78c0-4,3-6.21,8.87-6.21h8v-41h-8c-5.9,0-8.87-2.23-8.87-6.21s3-6.16,8.87-6.16h32.4c6,0,8.87,2.18,8.87,6.16s-2.92,6.21-8.87,6.21h-7.86v41h7.86c6,0,8.87,2.18,8.87,6.21s-2.92,6.17-8.87,6.17h-32.4C182.84,971,179.87,968.77,179.87,964.78Z"/><path d="M247.58,965.47c-3.24-2.44-4.94-5.47-4.94-8.92a6.61,6.61,0,0,1,7-6.8c4.09,0,6.75,2,9.19,4.36,2.92,3,6.27,5.57,12.38,5.57,6.27,0,10.51-2.6,10.51-6.9s-4.46-5.95-13.75-8.07C251,940.88,243.65,933.45,243.65,923c0-11.21,12-18.43,28.16-18.43,7.86,0,15.5,2,20.44,5.84,2.93,2.13,4.89,4.84,4.89,8.29,0,4.14-2.81,6.69-6.9,6.69s-6.91-2.65-8.77-4.41c-2-2.28-4.94-4-10-4-5.79,0-10.09,2.44-10.09,5.79,0,3.82,4.78,6.16,14.08,8.44,14,3.4,23.95,8.61,23.95,20.5,0,12.43-11.36,20.4-28.57,20.4C260.33,972.06,252.52,969.51,247.58,965.47Z"/><path d="M313.33,965.47c-3.24-2.44-4.94-5.47-4.94-8.92a6.61,6.61,0,0,1,7-6.8c4.09,0,6.75,2,9.19,4.36,2.92,3,6.27,5.57,12.38,5.57s10.51-2.6,10.51-6.9-4.46-5.95-13.75-8.07c-16.89-3.83-24.28-11.26-24.28-21.73,0-11.21,12-18.43,28.15-18.43,7.87,0,15.51,2,20.45,5.84,2.92,2.13,4.89,4.84,4.89,8.29,0,4.14-2.81,6.69-6.9,6.69s-6.91-2.65-8.77-4.41c-2-2.28-4.94-4-10-4-5.79,0-10.09,2.44-10.09,5.79,0,3.82,4.78,6.16,14.08,8.44,14,3.4,23.95,8.61,23.95,20.5,0,12.43-11.37,20.4-28.58,20.4C326.08,972.06,318.27,969.51,313.33,965.47Z"/><path d="M377.12,964.78c0-4,3-6.21,8.87-6.21h8v-41h-8c-5.9,0-8.87-2.23-8.87-6.21s3-6.16,8.87-6.16h32.4c5.95,0,8.87,2.18,8.87,6.16s-2.92,6.21-8.87,6.21h-7.86v41h7.86c5.95,0,8.87,2.18,8.87,6.21s-2.92,6.17-8.87,6.17H386C380.09,971,377.12,968.77,377.12,964.78Z"/><path d="M441.75,961.33V914.86c0-6.33,3.51-9.78,9.83-9.78h2.23c5.84,0,9.93,2.92,11.63,8.55l12.64,36.65V914.8c0-6.32,2.6-9.72,8.29-9.72,5.2,0,8.23,3.4,8.23,9.72v46.53c0,6.38-3.51,9.77-9.83,9.77h-2.28c-5.9,0-9.35-2.86-11.26-8.55L457.63,926v35.37c0,6.43-2.23,9.77-7.91,9.77S441.75,967.76,441.75,961.33Z"/><path d="M503.57,938.28c0-24.43,15.88-33.73,32.19-33.73,7.7,0,14.28,1.91,19.28,6.27,2.87,2.34,4.14,5,4.14,7.43,0,4-3.66,7-7.44,7a9.87,9.87,0,0,1-7-3.24c-2-2.18-5-4.88-9-4.88-7.44,0-14.77,5.68-14.77,21.19,0,16.31,7.33,21.25,15,21.25,6.27,0,8.82-4.73,9.4-12.17h-4.25c-4.62,0-8.12-2-8.12-6.05s3-5.69,10.57-5.69h10c6.32,0,9.35,3.08,9.35,8.87,0,18-11,27.57-27.14,27.57C519.5,972.06,503.57,962.77,503.57,938.28Z"/><path d="M678.25,958.57c6.37,0,9.83,2.18,9.83,6.21s-3.46,6.17-9.83,6.17H651c-6.32,0-9.77-3.35-9.77-8.61,0-3.66,1.06-5.26,3.77-9.24l24.06-35.54H651.8c-6.32,0-9.78-2.23-9.78-6.21s3.46-6.16,9.78-6.16h25.44c6.32,0,9.72,3.34,9.72,8.81,0,3.09-1,5-3.72,9L659,958.57Z"/><path d="M746.65,917.56H724.88v14.35h17.26c6.32,0,8.5,2.17,8.5,6.16s-2.18,6.16-8.5,6.16H724.88v14.34h21.77c6.38,0,9.41,2.18,9.41,6.21s-3,6.17-9.41,6.17H717.28c-6.37,0-9.83-3.4-9.83-9.83V915c0-6.37,3.46-9.77,9.83-9.77h29.37c6.38,0,9.41,2.18,9.41,6.16S753,917.56,746.65,917.56Z"/><path d="M824.94,952.3c0,12.48-9.67,18.65-23.9,18.65H780.8c-6.32,0-9.72-3.4-9.72-9.83V915c0-6.37,3.4-9.77,9.72-9.77H798c12.48,0,24.43,3.34,24.43,16.09,0,13-10.89,14.87-13.06,14.87C811.66,936.15,824.94,938.17,824.94,952.3Zm-36.44-21h7.06c5,0,9.83-1.17,9.83-6.85,0-6-4.94-6.86-10.25-6.86H788.5Zm18.7,19.28c0-6.22-5.1-7.81-11.05-7.81H788.5v15.83h7.17C802.42,958.57,807.2,956.66,807.2,950.55Z"/><path d="M869.55,963.19l-7.71-17.58h-7.91v16.52c0,6.32-3.08,9.72-8.76,9.72s-8.66-3.4-8.66-9.72V915c0-6.37,3.4-9.77,9.72-9.77h19.6c8.92,0,23.32,2.07,23.32,19.17,0,9.78-5.1,15.3-10.95,18.27l8.34,17.64a11.09,11.09,0,0,1,1.17,4.89c0,4-2.76,6.69-7.91,6.69C873.53,971.85,871.88,968.66,869.55,963.19Zm-15.62-30h8.61c6.16,0,9.18-2.6,9.18-8s-2.92-7.71-9.08-7.71h-8.71Z"/><path d="M899.07,964.41a11.94,11.94,0,0,1,.48-3.24l14.07-47.59c1.6-5.68,4.94-8.5,10.36-8.5h8.71c5.37,0,8.71,2.82,10.31,8.5l14.07,47.59a11.94,11.94,0,0,1,.48,3.24c0,4.78-3.13,7.54-7.86,7.54-5.84,0-8.18-2.92-9.56-8.76l-1.75-6.75H918.3l-1.76,6.75c-1.43,5.84-3.77,8.76-9.61,8.76C902.2,972,899.07,969.19,899.07,964.41Zm22.47-20.34h13.6l-6.27-24c-.21-.9-.37-1.8-.53-2.65-.16.85-.38,1.75-.59,2.65Z"/><path d="M1076,917.56h-19.76v19.55h17.37c5.47,0,8.08,2.18,8.08,6.22s-2.61,6.16-8.08,6.16h-17.37v12.64c0,6.32-3.08,9.72-8.76,9.72s-8.66-3.4-8.66-9.72V915c0-6.37,3.4-9.77,9.72-9.77H1076c6.43,0,9.83,2.18,9.83,6.16S1082.41,917.56,1076,917.56Z"/><path d="M1100.35,964.78c0-4,3-6.21,8.87-6.21h8v-41h-8c-5.89,0-8.87-2.23-8.87-6.21s3-6.16,8.87-6.16h32.4c6,0,8.88,2.18,8.88,6.16s-2.93,6.21-8.88,6.21h-7.86v41h7.86c6,0,8.88,2.18,8.88,6.21s-2.93,6.17-8.88,6.17h-32.4C1103.33,971,1100.35,968.77,1100.35,964.78Z"/><path d="M1168.07,965.47c-3.24-2.44-4.94-5.47-4.94-8.92a6.6,6.6,0,0,1,7-6.8c4.09,0,6.74,2,9.18,4.36,2.93,3,6.27,5.57,12.38,5.57,6.27,0,10.52-2.6,10.52-6.9s-4.46-5.95-13.76-8.07c-16.89-3.83-24.27-11.26-24.27-21.73,0-11.21,12-18.43,28.15-18.43,7.86,0,15.51,2,20.45,5.84,2.92,2.13,4.88,4.84,4.88,8.29,0,4.14-2.81,6.69-6.9,6.69s-6.91-2.65-8.76-4.41c-2-2.28-4.94-4-10-4-5.79,0-10.1,2.44-10.1,5.79,0,3.82,4.78,6.16,14.08,8.44,14,3.4,24,8.61,24,20.5,0,12.43-11.37,20.4-28.58,20.4C1180.81,972.06,1173,969.51,1168.07,965.47Z"/><path d="M1274.66,904.66c5.69,0,8.71,3.45,8.71,9.82v47.65c0,6.32-3,9.72-8.71,9.72s-8.71-3.4-8.71-9.72V943.8H1248.1v18.33c0,6.32-3.08,9.72-8.71,9.72s-8.71-3.4-8.71-9.72V914.48c0-6.37,3.08-9.82,8.71-9.82s8.71,3.45,8.71,9.82v17H1266v-17C1266,908.11,1269,904.66,1274.66,904.66Z"/><path d="M1616.42,402.75a2.39,2.39,0,0,1-1-1.85,1.41,1.41,0,0,1,1.47-1.43,2.63,2.63,0,0,1,1.93,1,5.49,5.49,0,0,0,4.63,2c2.59,0,4.35-1.08,4.35-2.9s-1.69-2.52-4.91-3.34c-4.78-1.19-7-3-7-6.16s3.29-5.12,7.79-5.12a8.49,8.49,0,0,1,6.14,2.14,2.25,2.25,0,0,1,1,1.74,1.34,1.34,0,0,1-1.43,1.38,2.61,2.61,0,0,1-1.85-1,4.52,4.52,0,0,0-3.9-1.63c-2.37,0-4.13,1-4.13,2.45,0,1.73,1.65,2.5,4.8,3.36,4.5,1.2,7.16,2.72,7.16,6,0,3.54-3.19,5.71-8,5.71C1620,405.06,1617.83,404.16,1616.42,402.75Z"/><path d="M1634.47,395c0-7.35,4.43-10.06,8.58-10.06s8.55,2.71,8.55,10.06-4.43,10.07-8.55,10.07S1634.47,402.34,1634.47,395Zm13.54,0c0-5-2.28-7.44-5-7.44s-5,2.44-5,7.44,2.29,7.46,5,7.46S1648,400,1648,395Z"/><path d="M1655.1,402.8V387.15a1.94,1.94,0,0,1,2.15-2.11h.41a2.74,2.74,0,0,1,2.54,1.79l6.6,13.06V387.12c0-1.38.54-2.08,1.68-2.08s1.68.7,1.68,2.08v15.65a2,2,0,0,1-2.15,2.12h-.43a2.63,2.63,0,0,1-2.47-1.79l-6.65-13.05V402.8c0,1.38-.54,2.09-1.68,2.09S1655.1,404.18,1655.1,402.8Z"/><path d="M1673.67,395c0-7.35,4.44-10.06,8.59-10.06s8.55,2.71,8.55,10.06-4.43,10.07-8.55,10.07S1673.67,402.34,1673.67,395Zm13.54,0c0-5-2.28-7.44-5-7.44s-5,2.44-5,7.44,2.28,7.46,5,7.46S1687.21,400,1687.21,395Z"/><path d="M1726.48,402.13c1.38,0,2.12.46,2.12,1.3s-.74,1.3-2.12,1.3h-8a1.9,1.9,0,0,1-2.12-2.12V387.09c0-1.38.62-2.12,1.76-2.12s1.76.74,1.76,2.12v15Z"/><path d="M1734.14,403.43c0-.84.64-1.3,1.94-1.3h3.24V387.72h-3.24c-1.3,0-1.94-.47-1.94-1.31s.64-1.29,1.94-1.29h9.77c1.3,0,1.93.46,1.93,1.29s-.63,1.31-1.93,1.31h-3.17v14.41h3.17c1.3,0,1.93.46,1.93,1.3s-.63,1.3-1.93,1.3h-9.77C1734.78,404.73,1734.14,404.27,1734.14,403.43Z"/><path d="M1752.16,395c0-7.24,4.53-10.06,9-10.06a7.5,7.5,0,0,1,5.47,1.95,2.19,2.19,0,0,1,.87,1.62,1.49,1.49,0,0,1-1.51,1.41,2.18,2.18,0,0,1-1.56-.79,4.14,4.14,0,0,0-3.25-1.54c-2.73,0-5.45,2.12-5.45,7.41s2.72,7.43,5.42,7.43c2.47,0,3.83-1.73,4-5.21H1762c-1.06,0-1.81-.41-1.81-1.27s.65-1.22,2.25-1.22h4.18a1.77,1.77,0,0,1,2,1.95c0,5.64-3.15,8.39-7.58,8.39S1752.16,402.23,1752.16,395Z"/><path d="M1785.66,385c1.14,0,1.75.74,1.75,2.12v15.76c0,1.38-.61,2.1-1.75,2.1s-1.76-.72-1.76-2.1V396h-7.34v6.88c0,1.38-.61,2.1-1.75,2.1s-1.75-.72-1.75-2.1V387.09c0-1.38.62-2.12,1.75-2.12s1.75.74,1.75,2.12v6.3h7.34v-6.3C1783.9,385.71,1784.51,385,1785.66,385Z"/><path d="M1807.82,386.41c0,.84-.61,1.31-1.79,1.31h-4.41v15.13c0,1.38-.64,2.1-1.78,2.1s-1.74-.72-1.74-2.1V387.72H1794c-1.38,0-2.12-.47-2.12-1.31s.74-1.29,2.12-1.29h11.71C1807.08,385.12,1807.82,385.58,1807.82,386.41Z"/><path d="M1645.74,946.3a2.25,2.25,0,0,1-.94-1.75,1.33,1.33,0,0,1,1.38-1.34,2.46,2.46,0,0,1,1.82.94,5.17,5.17,0,0,0,4.36,1.87c2.44,0,4.1-1,4.1-2.73s-1.6-2.37-4.63-3.15c-4.5-1.12-6.63-2.82-6.63-5.8s3.1-4.81,7.34-4.81a8,8,0,0,1,5.78,2,2.12,2.12,0,0,1,.91,1.64,1.26,1.26,0,0,1-1.34,1.3,2.44,2.44,0,0,1-1.75-1,4.25,4.25,0,0,0-3.66-1.53c-2.24,0-3.9,1-3.9,2.31,0,1.62,1.55,2.35,4.52,3.16,4.23,1.13,6.74,2.56,6.74,5.63,0,3.34-3,5.38-7.54,5.38C1649.15,948.47,1647.06,947.62,1645.74,946.3Z"/><path d="M1662.73,939c0-6.91,4.18-9.46,8.08-9.46s8,2.55,8,9.46-4.17,9.48-8,9.48S1662.73,945.91,1662.73,939Zm12.75,0c0-4.71-2.15-7-4.67-7s-4.71,2.29-4.71,7,2.15,7,4.71,7S1675.48,943.73,1675.48,939Z"/><path d="M1682.16,946.34V931.61a1.82,1.82,0,0,1,2-2h.39a2.58,2.58,0,0,1,2.39,1.69l6.21,12.28v-12c0-1.29.51-2,1.58-2s1.58.66,1.58,2v14.73a1.83,1.83,0,0,1-2,2h-.4a2.48,2.48,0,0,1-2.32-1.68l-6.26-12.29v12c0,1.3-.51,2-1.58,2S1682.16,947.64,1682.16,946.34Z"/><path d="M1699.64,939c0-6.91,4.17-9.46,8.08-9.46s8,2.55,8,9.46-4.17,9.48-8,9.48S1699.64,945.91,1699.64,939Zm12.75,0c0-4.71-2.15-7-4.67-7s-4.71,2.29-4.71,7,2.15,7,4.71,7S1712.39,943.73,1712.39,939Z"/><path d="M1752,943c0,3.46-2.44,5.17-6.53,5.17h-5.32a1.79,1.79,0,0,1-2-2V931.69a1.77,1.77,0,0,1,2-2h4.53c3.53,0,6.68.83,6.68,4.51a3.92,3.92,0,0,1-3.47,4.25A4.4,4.4,0,0,1,1752,943Zm-10.52-5.5h3.29c1.92,0,3.32-.85,3.32-2.74,0-2.17-1.68-2.6-3.71-2.6h-2.9Zm7.15,5.2c0-2.13-1.67-2.91-3.73-2.91h-3.42v5.94h3C1747.17,945.72,1748.58,944.78,1748.58,942.69Z"/><path d="M1755,939c0-6.91,4.17-9.46,8.08-9.46s8.05,2.55,8.05,9.46-4.18,9.48-8.05,9.48S1755,945.91,1755,939Zm12.74,0c0-4.71-2.14-7-4.66-7s-4.71,2.29-4.71,7,2.14,7,4.71,7S1767.75,943.73,1767.75,939Z"/><path d="M1786.27,945.72c1.29,0,2,.43,2,1.22s-.7,1.22-2,1.22h-7.56a1.8,1.8,0,0,1-2-2V931.55c0-1.29.58-2,1.66-2s1.65.7,1.65,2v14.17Z"/><path d="M1807.51,938.93c0,8-5.74,9.23-8.83,9.23h-3.74a1.79,1.79,0,0,1-2-2V931.69a1.77,1.77,0,0,1,2-2h3.74C1801.77,929.71,1807.51,930.91,1807.51,938.93Zm-3.34,0c0-4.93-2.64-6.78-5.53-6.78h-2.37v13.57h2.37C1801.53,945.72,1804.17,943.85,1804.17,938.93Z"/></svg>